:SAMPLES-PER-SECOND 30
:FULLY-SPECIFIED
:DEGREES
66
root  47.3366 38.7795 -5.96179 -104.254 -87.7819 101.447
RightUpLeg  -18.1929 -6.1637 -3.87129
RightLeg  -4.72891 -8.79577 6.26211
RightFoot  0.775795 -0.801811 7.58926
RightToes  1.16414e-010 0 -3.6325e-017
Spine  9.46976 -2.51676 -4.71927
Spine1  7.13546 -3.98357 3.91455
HEad  -14.225 7.57668 -6.29852
LeftShoulder1  9.15396 -12.9276 -48.6347
LeftArm  -0.106523 -5.60289 -27.4269
LeftForeArm  21.9435 -24.074 -3.99613
LeftHand  -0.244104 0.0205437 5.32207
RightShoulder  6.20411 9.66625 40.916
RightArm  -7.70232 -26.8976 29.2959
RightForeArm  13.7401 3.92295 5.65082
RightHand  -0.824526 0.913304 -15.2605
LeftUpLeg  13.0958 6.24573 -2.0078
LeftLeg  10.7875 9.95955 -3.71104
LeftFoot  -20.1625 0.100543 -0.271493
LeftToes  -6.73059e-011 1.31891e-010 -1.28765e-011
67
root  45.8305 38.5248 -5.99716 -97.5179 -88.2259 94.7514
RightUpLeg  -19.4105 -5.76877 -3.00078
RightLeg  -1.94462 -9.81832 5.77209
RightFoot  2.84897 -0.545939 4.62639
RightToes  1.16414e-010 0 -3.6325e-017
Spine  9.2463 -2.72225 -3.42756
Spine1  7.47593 -4.23863 4.08166
HEad  -14.3623 7.38844 -6.07147
LeftShoulder1  9.16349 -12.9472 -48.6274
LeftArm  -0.117174 -6.67064 -27.6288
LeftForeArm  22.0783 -24.3629 -4.04999
LeftHand  -0.244104 0.0205437 5.32207
RightShoulder  6.18813 9.65184 40.8501
RightArm  -7.68989 -27.1212 28.8376
RightForeArm  13.5522 3.61919 5.60739
RightHand  -0.853379 1.10455 -15.3382
LeftUpLeg  15.4703 7.40434 -0.862912
LeftLeg  11.2158 7.98951 -3.3722
LeftFoot  -21.1634 0.0163966 -1.28874
LeftToes  -6.73059e-011 1.31891e-010 -1.28765e-011
68
root  44.223 38.3158 -6.03449 -88.0967 -89.4557 85.2816
RightUpLeg  -21.6252 -6.72823 -0.62701
RightLeg  5.64543 -9.93592 3.84774
RightFoot  5.90741 0.0443396 -0.0212422
RightToes  1.16414e-010 0 -3.6325e-017
Spine  9.26367 -3.10965 -0.837232
Spine1  7.41171 -4.46587 3.79405
HEad  -14.5725 7.47817 -6.40047
LeftShoulder1  9.22804 -12.9334 -49.0123
LeftArm  -0.914027 -6.21446 -27.4845
LeftForeArm  22.927 -25.5383 -4.25686
LeftHand  -0.244104 0.0205437 5.32207
RightShoulder  6.20309 9.62259 41.0558
RightArm  -7.40909 -26.2872 28.1573
RightForeArm  14.2376 3.19564 5.5859
RightHand  -0.912909 1.53915 -15.3972
LeftUpLeg  17.5478 9.49444 1.34003
LeftLeg  12.8069 5.2033 -2.16724
LeftFoot  -21.5279 -0.137129 -2.96334
LeftToes  -6.73059e-011 1.31891e-010 -1.28765e-011
69
root  42.5162 38.1575 -6.07091 105.24 -88.751 -108.389
RightUpLeg  -23.4833 -11.6971 4.25064
RightLeg  13.581 -4.19176 0.838276
RightFoot  7.27461 0.63064 -3.58642
RightToes  1.16414e-010 0 -3.6325e-017
Spine  9.54333 -3.52893 2.64852
Spine1  7.04039 -4.45275 3.06745
HEad  -14.7913 7.90355 -7.18348
LeftShoulder1  9.36865 -12.921 -49.7956
LeftArm  -2.61086 -3.92095 -27.0437
LeftForeArm  24.4829 -27.7232 -4.65385
LeftHand  -0.244104 0.0205437 5.32207
RightShoulder  6.27594 9.6401 41.516
RightArm  -7.22853 -24.4865 27.3552
RightForeArm  14.6708 2.82631 5.58131
RightHand  -0.963002 1.83995 -15.5752
LeftUpLeg  19.4727 12.1083 4.40696
LeftLeg  15.534 1.82462 -0.660878
LeftFoot  -21.0619 -0.428915 -6.54744
LeftToes  -6.73059e-011 1.31891e-010 -1.28765e-011
70
root  40.7948 38.0872 -6.1515 108.87 -87.0018 -112.383
RightUpLeg  -24.0246 -13.3676 7.42692
RightLeg  19.6439 -1.0044 -0.827603
RightFoot  5.03845 0.849839 -5.67528
RightToes  1.16414e-010 0 -3.6325e-017
Spine  9.77406 -3.79834 5.64498
Spine1  6.7923 -4.34635 2.73222
HEad  -14.7957 8.61368 -7.90842
LeftShoulder1  9.48533 -12.8887 -50.5093
LeftArm  -4.44019 -0.16221 -26.7795
LeftForeArm  25.8117 -30.1745 -5.14003
LeftHand  -0.244104 0.0205437 5.32207
RightShoulder  6.39943 9.73691 42.0617
RightArm  -7.3113 -21.889 26.8385
RightForeArm  13.9357 2.70213 5.64634
RightHand  -1.01047 1.99106 -16.0028
LeftUpLeg  19.9062 13.1502 7.00859
LeftLeg  20.4959 0.168372 0.582674
LeftFoot  -18.1392 -0.561855 -11.5891
LeftToes  -6.73059e-011 1.31891e-010 -1.28765e-011
71
root  39.1248 38.1021 -6.30611 105.614 -85.9202 -109.09
RightUpLeg  -23.2053 -12.3617 8.05336
RightLeg  23.711 -1.8486 -1.11154
RightFoot  0.846648 0.724636 -6.69976
RightToes  1.16414e-010 0 -3.6325e-017
Spine  9.49689 -3.97282 7.39665
Spine1  6.70595 -4.35306 3.09927
HEad  -14.3511 9.0879 -8.11274
LeftShoulder1  9.48997 -12.8312 -50.7084
LeftArm  -5.13038 3.87504 -27.0959
LeftForeArm  26.1825 -31.5902 -5.45453
LeftHand  -0.244104 0.0205437 5.32207
RightShoulder  6.46678 9.77734 42.3969
RightArm  -7.85153 -18.8875 27.1669
RightForeArm  12.5563 3.14296 5.72676
RightHand  -1.10175 2.39718 -16.5402
LeftUpLeg  16.7703 10.7606 7.88445
LeftLeg  29.4043 2.27938 1.76456
LeftFoot  -10.4323 0.157941 -14.4719
LeftToes  -6.73059e-011 1.31891e-010 -1.28765e-011
72
root  37.5696 38.1788 -6.4903 94.9022 -85.2061 -97.94
RightUpLeg  -21.9176 -13.4402 8.77497
RightLeg  25.8071 -1.79354 -1.17692
RightFoot  -2.76598 0.481452 -6.63114
RightToes  1.16414e-010 0 -3.6325e-017
Spine  8.86105 -4.0583 8.95387
Spine1  6.69111 -4.25918 3.45061
HEad  -13.6388 8.68107 -7.76298
LeftShoulder1  9.43917 -12.8098 -50.5058
LeftArm  -4.08134 6.90654 -27.8091
LeftForeArm  25.972 -31.2302 -5.38193
LeftHand  -0.244104 0.0205437 5.32207
RightShoulder  6.44015 9.68872 42.513
RightArm  -8.70478 -15.8547 28.2627
RightForeArm  11.0763 4.60686 5.85529
RightHand  -1.23222 3.12728 -16.928
LeftUpLeg  10.6068 8.42734 8.48113
LeftLeg  40.4968 3.55792 3.61692
LeftFoot  1.23995 1.35105 -12.5775
LeftToes  -6.73059e-011 1.31891e-010 -1.28765e-011
73
root  36.1524 38.2705 -6.6461 83.9117 -84.3579 -86.6382
RightUpLeg  -20.265 -14.7833 9.33192
RightLeg  26.9562 -1.54689 -1.09511
RightFoot  -5.59532 0.245848 -5.62033
RightToes  1.16414e-010 0 -3.6325e-017
Spine  8.56109 -3.95425 11.1441
Spine1  6.83882 -3.68888 3.16148
HEad  -13.1525 7.33291 -7.18816
LeftShoulder1  9.44332 -12.8616 -50.3699
LeftArm  -1.85841 8.57693 -28.3989
LeftForeArm  25.8061 -29.5149 -4.98806
LeftHand  -0.244104 0.0205437 5.32207
RightShoulder  6.43898 9.63595 42.6861
RightArm  -9.00366 -12.7449 29.3364
RightForeArm  8.99539 7.23629 6.24505
RightHand  -1.35023 3.7925 -17.2121
LeftUpLeg  3.63026 6.21073 9.0454
LeftLeg  50.779 3.49731 5.01523
LeftFoot  9.66279 1.58157 -8.74489
LeftToes  -6.73059e-011 1.31891e-010 -1.28765e-011
74
root  34.727 38.518 -6.79634 78.6679 -84.2681 -81.591
RightUpLeg  -17.2364 -15.7868 8.76941
RightLeg  26.6009 -0.856664 -0.733826
RightFoot  -8.00076 0.0708862 -4.3013
RightToes  1.16414e-010 0 -3.6325e-017
Spine  8.69598 -3.41718 12.4969
Spine1  7.08431 -2.64661 2.24153
HEad  -13.017 5.59427 -6.69846
LeftShoulder1  9.5002 -12.9328 -50.4534
LeftArm  0.45335 9.56857 -28.6394
LeftForeArm  25.493 -27.2702 -4.49569
LeftHand  -0.244104 0.0205437 5.32207
RightShoulder  6.52987 9.75964 42.8981
RightArm  -7.24798 -9.35106 30.0107
RightForeArm  5.48546 10.7921 6.73864
RightHand  -1.43548 4.10631 -17.6873
LeftUpLeg  -2.19413 4.97988 8.88169
LeftLeg  58.1504 3.10275 5.91344
LeftFoot  10.6379 1.18241 -6.38124
LeftToes  -6.73059e-011 1.31891e-010 -1.28765e-011
75
root  33.2436 38.8979 -6.96859 75.5589 -85.2193 -78.7688
RightUpLeg  -13.1497 -16.4841 6.99416
RightLeg  24.74 -0.0183015 -0.0813902
RightFoot  -9.76083 -0.0209249 -3.33328
RightToes  1.16414e-010 0 -3.6325e-017
Spine  8.68596 -2.54523 12.5397
Spine1  7.37247 -1.41874 1.01784
HEad  -12.7971 3.98497 -6.36462
LeftShoulder1  9.5201 -12.9665 -50.4559
LeftArm  2.26414 10.7269 -28.6964
LeftForeArm  24.4378 -24.8827 -4.03648
LeftHand  -0.244104 0.0205437 5.32207
RightShoulder  6.58734 9.91253 42.7756
RightArm  -2.3729 -5.89469 30.7348
RightForeArm  0.287737 15.2199 6.48977
RightHand  -1.47766 4.03429 -18.3268
LeftUpLeg  -7.04298 4.57944 7.68707
LeftLeg  61.9318 2.97885 6.64897
LeftFoot  7.28712 0.87006 -5.58568
LeftToes  -6.73059e-011 1.31891e-010 -1.28765e-011
76
root  31.7464 39.2405 -7.1344 72.0045 -86.3102 -75.0885
RightUpLeg  -9.2171 -15.5357 4.77058
RightLeg  22.4678 -0.757258 0.827602
RightFoot  -10.9755 -0.0659404 -2.58569
RightToes  1.16414e-010 0 -3.6325e-017
Spine  8.13704 -1.60982 12.6028
Spine1  7.57193 -0.153116 -0.385166
HEad  -12.1147 2.68738 -6.16493
LeftShoulder1  9.47413 -12.962 -50.228
LeftArm  3.2317 12.3929 -28.6298
LeftForeArm  23.1215 -22.5353 -3.80532
LeftHand  -0.244104 0.0205437 5.32207
RightShoulder  6.4922 9.8856 42.2062
RightArm  2.71211 -2.92604 31.6517
RightForeArm  -3.94664 20.4766 5.54908
RightHand  -1.44332 3.62617 -18.6875
LeftUpLeg  -11.6887 4.30167 6.13639
LeftLeg  62.4607 3.054 6.96101
LeftFoot  4.24979 0.660057 -5.00247
LeftToes  -6.73059e-011 1.31891e-010 -1.28765e-011
77
root  30.2352 39.5062 -7.27446 67.9897 -87.1864 -70.6686
RightUpLeg  -5.55939 -12.869 2.73086
RightLeg  19.9809 -2.93368 1.92002
RightFoot  -12.1544 -0.0918678 -1.4607
RightToes  1.16414e-010 0 -3.6325e-017
Spine  7.39733 -0.709581 13.0312
Spine1  7.46786 1.0806 -1.98078
HEad  -11.1554 1.72312 -6.14046
LeftShoulder1  9.40726 -12.918 -50.0089
LeftArm  2.81183 14.5082 -28.1834
LeftForeArm  22.9432 -20.7132 -4.06618
LeftHand  -0.244104 0.0205437 5.32207
RightShoulder  6.31444 9.71444 41.5379
RightArm  3.53039 -0.661811 32.1733
RightForeArm  -3.88957 26.3757 5.77053
RightHand  -1.34409 3.0608 -18.5555
LeftUpLeg  -15.9714 4.07817 4.581
LeftLeg  60.392 3.32317 6.88282
LeftFoot  2.56593 0.420378 -3.56782
LeftToes  -6.73059e-011 1.31891e-010 -1.28765e-011
78
root  28.7183 39.6996 -7.3972 59.5634 -88.0594 -61.8643
RightUpLeg  -1.86148 -10.7605 0.939365
RightLeg  17.1856 -4.32983 3.03241
RightFoot  -13.3712 -0.0932887 -0.141399
RightToes  1.16414e-010 0 -3.6325e-017
Spine  6.92968 0.0920994 13.1586
Spine1  7.171 2.12968 -3.59959
HEad  -10.4402 1.03075 -6.31976
LeftShoulder1  9.33944 -12.8224 -49.9391
LeftArm  2.36297 16.9456 -27.3111
LeftForeArm  22.9237 -20.0738 -4.22494
LeftHand  -0.244104 0.0205437 5.32207
RightShoulder  6.17984 9.57025 41.0667
RightArm  1.98447 1.13022 32.0871
RightForeArm  -2.16056 32.942 7.42775
RightHand  -1.25555 2.59088 -18.3497
LeftUpLeg  -19.4175 4.20599 2.95484
LeftLeg  56.1257 3.68874 6.40721
LeftFoot  0.582519 0.303968 -2.9794
LeftToes  -6.73059e-011 1.31891e-010 -1.28765e-011
79
root  27.2043 39.7795 -7.50327 39.3361 -88.7276 -41.1905
RightUpLeg  1.56317 -9.77744 -0.55745
RightLeg  14.6714 -4.77214 3.98377
RightFoot  -14.4051 -0.0843361 0.519261
RightToes  1.16414e-010 0 -3.6325e-017
Spine  6.49817 0.720434 13.0953
Spine1  7.04663 2.94366 -5.10603
HEad  -10.2939 0.470525 -6.60185
LeftShoulder1  9.25988 -12.7131 -49.8471
LeftArm  2.68052 19.6685 -26.2676
LeftForeArm  22.3061 -20.8854 -4.04955
LeftHand  -0.244104 0.0205437 5.32207
RightShoulder  6.09987 9.50149 40.7229
RightArm  0.848775 2.693 31.793
RightForeArm  -1.09358 39.8507 9.42411
RightHand  -1.21409 2.2289 -18.5699
LeftUpLeg  -22.0737 4.90474 1.34541
LeftLeg  49.7272 3.88403 5.34852
LeftFoot  -1.37492 0.356837 -3.9898
LeftToes  -6.73059e-011 1.31891e-010 -1.28765e-011
80
root  25.6687 39.7533 -7.58933 12.5155 -89.0006 -13.668
RightUpLeg  4.50105 -9.28237 -1.53472
RightLeg  12.5568 -4.79422 4.60117
RightFoot  -15.4289 -0.0842647 0.567014
RightToes  1.16414e-010 0 -3.6325e-017
Spine  5.79639 1.24641 13.2933
Spine1  7.14967 3.66132 -6.6726
HEad  -10.6932 0.00482904 -6.77436
LeftShoulder1  9.18261 -12.6502 -49.6245
LeftArm  2.9138 22.7868 -25.2122
LeftForeArm  21.7882 -23.1955 -3.92287
LeftHand  -0.244104 0.0205437 5.32207
RightShoulder  6.03795 9.46052 40.4122
RightArm  -0.130222 4.00199 31.5901
RightForeArm  0.759491 46.5393 11.7936
RightHand  -1.15124 1.66208 -18.9946
LeftUpLeg  -24.076 6.39342 -0.31057
LeftLeg  41.4064 3.78 3.94999
LeftFoot  -1.85369 0.369882 -4.32472
LeftToes  -6.73059e-011 1.31891e-010 -1.28765e-011
